<svg width="21" height="25" viewBox="0 0 21 25" fill="none" xmlns="http://www.w3.org/2000/svg">
<g id="&#240;&#159;&#166;&#134; icon &#34;map&#34;">
<path id="Vector" d="M0 0.031211V25H20.7701V17.5718C20.8125 17.3457 20.8125 17.1112 20.7701 16.8851V0H0V0.031211ZM2.59627 3.15231H18.1739V15.6367H14.2795C14.2017 15.6283 14.1235 15.6283 14.0458 15.6367C13.7015 15.674 13.3836 15.8741 13.1621 16.1931C12.9406 16.5121 12.8335 16.9238 12.8645 17.3377C12.8955 17.7516 13.062 18.1337 13.3273 18.4C13.5927 18.6664 13.9352 18.7951 14.2795 18.7578H18.1739V21.8789H2.59627V3.15231ZM9.08693 6.27341C6.93203 6.27341 5.19253 8.36454 5.19253 10.9551C5.19253 14.0762 9.08693 18.7578 9.08693 18.7578C9.08693 18.7578 12.9813 14.0762 12.9813 10.9551C12.9813 8.36454 11.2418 6.27341 9.08693 6.27341ZM9.08693 9.39451C9.81389 9.39451 10.3851 10.0811 10.3851 10.9551C10.3851 11.829 9.81389 12.5156 9.08693 12.5156C8.35998 12.5156 7.7888 11.829 7.7888 10.9551C7.7888 10.0811 8.35998 9.39451 9.08693 9.39451Z" fill="black"/>
</g>
</svg>
