<svg width="25" height="30" viewBox="0 0 25 30" fill="none" xmlns="http://www.w3.org/2000/svg">
<g id="&#240;&#159;&#166;&#134; icon &#34;clock&#34;">
<path id="Vector" d="M12.2415 0C5.50867 0 0 6.62224 0 14.7161C0 22.8099 5.50867 29.4322 12.2415 29.4322C18.9743 29.4322 24.483 22.8099 24.483 14.7161C24.483 6.62224 18.9743 0 12.2415 0ZM12.2415 3.67902C17.3217 3.67902 21.4226 8.60892 21.4226 14.7161C21.4226 20.8233 17.3217 25.7532 12.2415 25.7532C7.16127 25.7532 3.06037 20.8233 3.06037 14.7161C3.06037 8.60892 7.16127 3.67902 12.2415 3.67902ZM10.7113 7.35805V15.5255L11.201 16.0038L12.7312 17.8433L13.7717 19.2413L15.9752 16.5924L14.8122 15.3415L13.7717 14.0907V7.43163H10.7113V7.35805Z" fill="black"/>
</g>
</svg>
