<svg width="26" height="22" viewBox="0 0 26 22" fill="none" xmlns="http://www.w3.org/2000/svg">
<g id="&#240;&#159;&#166;&#134; icon &#34;people&#34;">
<path id="Vector" d="M17.4656 0C15.846 0 14.4488 0.954373 13.5914 2.39956C15.0204 3.87203 15.8778 5.88984 15.8778 8.2076C15.8778 8.99837 15.7825 9.70733 15.592 10.4163C16.1953 10.7162 16.7987 10.9344 17.4656 10.9344C20.1013 10.9344 22.2289 8.48028 22.2289 5.48082C22.2289 2.48137 20.1013 0.0272678 17.4656 0.0272678V0ZM7.93889 2.72678C5.30318 2.72678 3.17556 5.18088 3.17556 8.18034C3.17556 11.1798 5.30318 13.6339 7.93889 13.6339C10.5746 13.6339 12.7022 11.1798 12.7022 8.18034C12.7022 5.18088 10.5746 2.72678 7.93889 2.72678ZM23.0228 11.3434C21.6573 12.7341 19.7837 13.5794 17.6561 13.6339C18.5135 14.6701 19.0533 15.9244 19.0533 17.2878V19.0875H25.4044V14.561C25.4044 13.1431 24.42 11.916 23.0228 11.3161V11.3434ZM2.38167 14.0702C0.984422 14.6701 0 15.8971 0 17.315V21.8415H15.8778V17.315C15.8778 15.8971 14.8934 14.6701 13.4961 14.0702C12.0671 15.5154 10.13 16.3607 7.93889 16.3607C5.74776 16.3607 3.81067 15.4881 2.38167 14.0702Z" fill="#132931"/>
</g>
</svg>
